<?xml version="1.0" encoding="UTF-8"?>
<svg id="Camada_1" xmlns="http://www.w3.org/2000/svg" version="1.1" xmlns:xlink="http://www.w3.org/1999/xlink" viewBox="0 0 48 39">
  <!-- Generator: Adobe Illustrator 29.3.1, SVG Export Plug-In . SVG Version: 2.1.0 Build 151)  -->
  <defs>
    <style>
      .st0 {
        fill: #2d4257;
      }

      .st1 {
        fill: none;
      }

      .st2 {
        fill: #222;
      }

      .st3 {
        fill: #527ea1;
      }

      .st4 {
        clip-path: url(#clippath);
      }
    </style>
    <clipPath id="clippath">
      <rect class="st1" y="0" width="48" height="39"/>
    </clipPath>
  </defs>
  <g class="st4">
    <g>
      <path class="st3" d="M24.1,39c-1.7,0-3.2-1.4-3.1-3.1,0-1.7,1.5-3,3.2-3,1.7,0,3.1,1.4,3.1,3s-1.4,3-3.1,3h0Z"/>
      <path class="st0" d="M10.2,32.9c1.7,0,3.1,1.4,3.1,3,0,1.7-1.4,3.1-3.2,3-1.7,0-3.1-1.4-3.1-3,0-1.6,1.5-3,3.2-3h0Z"/>
      <path class="st0" d="M34.7,35.9c0-1.7,1.4-3,3.1-3,1.7,0,3.1,1.4,3.1,3.1,0,1.7-1.4,3-3.1,3s-3.1-1.3-3.1-3.1Z"/>
      <path class="st2" d="M15.5.5v3.4C14,1.6,12,.4,9.5.1,5.4-.4,2,1.2.7,5.3.3,6.3,0,7.5,0,8.6c0,4,0,7.9,0,11.9,0,2,.8,3.8,2.2,5.3,2,2.2,4.6,2.6,7.5,2.3,2-.2,3.7-1,5-2.5.2-.3.4-.6.7-.9,0,0,.1,0,.1,0v14.1h3.8V.5h-3.9ZM15.4,19.3c-.2,4.5-4.2,6.5-8.2,5-2.2-.8-3.1-2.6-3.3-4.7-.1-1.8,0-3.7,0-5.5s0-3.7,0-5.5c.1-2.7,1.8-4.7,4.3-5.2,3.8-.8,7,1.5,7.2,5.3.1,3.5.2,7.1,0,10.6h0Z"/>
      <path class="st2" d="M48,15.4c0-2.8,0-5.6-.3-8.3-.2-2.2-1.2-4.2-3-5.7-2.6-2-7.4-1.9-10.2.3-.7.5-1.3,1.2-2,1.8V.5h-3.8v38.3h3.9v-14c1.7,2.1,3.1,3,6,3.3,4.5.5,7.9-1.5,9.1-6.1.5-2.2.5-4.3.5-6.5h0ZM44.1,18.7c0,1.8-.5,3.5-2,4.8-1.8,1.5-4,1.7-6.2.9-2.2-.8-3.3-2.6-3.4-4.8-.2-1.9,0-3.8,0-5.7s-.1-3.7,0-5.6c.2-2.2,1.4-4,3.7-4.7,2.3-.7,4.4-.5,6.2,1.3,1.3,1.2,1.7,2.9,1.7,4.5,0,3.1,0,6.2,0,9.3h0Z"/>
    </g>
  </g>
</svg>